# xmcd
#
# Track frame offsets:
#	150
#	10675
#	20820
#	32395
#	43932
#	55580
#	65197
#	76932
#	88040
#	96070
#	107067
#	118320
#	130185
#	141847
#	153847
#	166745
#
# Disc length: 2358 seconds
#
# Revision: 1
# Processed by: cddbd v1.5.2PL0 Copyright (c) Steve Scherf et al.
# Submitted via: EasyCDDAExtractor 10.2.0.1
#
DISCID=cb093410
DTITLE=The Good Shepherd Quartet - Past and Present Vol. II
DYEAR=1993
DGENRE=Gospel
TTITLE0=Tell It Everywhere You Go
TTITLE1=When They Ring The Bells Of Heaven
TTITLE2=I Want A Religion I Can Feel
TTITLE3=The Lord In Mercy Pardoned Me
TTITLE4=Looking Beyond The River
TTITLE5=I Want To Be Faithful
TTITLE6=Only One More River
TTITLE7=The Lord Needs Workers
TTITLE8=Zacchaeus, Come Down
TTITLE9=My Child, Well Done
TTITLE10=Crossing Over Jordan
TTITLE11=Who Rolled The Stone Away
TTITLE12=Rocked On The Deep
TTITLE13=You're Gonna Pay For What You Do
TTITLE14=Waiting For The Boatsman
TTITLE15=There's A Crown Awaiting Me
EXTD=
EXTT0=
EXTT1=
EXTT2=
EXTT3=
EXTT4=
EXTT5=
EXTT6=
EXTT7=
EXTT8=
EXTT9=
EXTT10=
EXTT11=
EXTT12=
EXTT13=
EXTT14=
EXTT15=
PLAYORDER=
